<?xml version="1.0" encoding="UTF-8" standalone="no"?>
<svg
   id="Layer_1"
   data-name="Layer 1"
   viewBox="0 0 64 64.000002"
   version="1.1"
   sodipodi:docname="chevron.svg"
   xml:space="preserve"
   width="64"
   height="64"
   inkscape:version="1.3.2 (091e20e, 2023-11-25, custom)"
   xmlns:inkscape="http://www.inkscape.org/namespaces/inkscape"
   xmlns:sodipodi="http://sodipodi.sourceforge.net/DTD/sodipodi-0.dtd"
   xmlns="http://www.w3.org/2000/svg"
   xmlns:svg="http://www.w3.org/2000/svg"><sodipodi:namedview
     id="namedview2"
     pagecolor="#ffffff"
     bordercolor="#000000"
     borderopacity="0.25"
     inkscape:showpageshadow="2"
     inkscape:pageopacity="0.0"
     inkscape:pagecheckerboard="0"
     inkscape:deskcolor="#d1d1d1"
     inkscape:zoom="3.5877324"
     inkscape:cx="33.865402"
     inkscape:cy="39.997409"
     inkscape:window-width="1920"
     inkscape:window-height="1111"
     inkscape:window-x="-9"
     inkscape:window-y="-9"
     inkscape:window-maximized="1"
     inkscape:current-layer="Layer_1" /><defs
     id="defs1"><style
       id="style1">.cls-1{fill:#393939;}.cls-2{fill:#fff;}</style></defs><path
     style="stroke-width:0.214;stroke-dasharray:none;fill:#6d6d6d;opacity:1;fill-opacity:1"
     d="m 28.194222,63.867742 c -13.8419,-1.7482 -24.7466001,-11.8622 -27.68060008,-25.6738 -0.6316,-2.9729 -0.6916,-8.9356 -0.1195,-11.8773 C 2.9940219,12.946642 12.966522,2.9751424 26.325922,0.38734241 c 2.6664,-0.5165 8.6764,-0.5165 11.3428,0 8.6499,1.67559999 16.1309,6.57909999 20.889,13.69219959 2.473,3.6971 3.9893,7.2993 4.9257,11.7021 0.689,3.2394 0.6886,9.1767 0,12.4123 -2.7659,12.98 -12.5032,22.7228 -25.2569,25.271 -2.4029,0.4802 -7.7262,0.6939 -10.0314,0.4028 z m 0.4464,-19.2877 c 0.5054,-0.2683 11.3614,-9.8259 12.5058,-11.0102 0.5505,-0.5697 0.6955,-0.8995 0.6955,-1.5821 0,-0.6825 -0.145,-1.0123 -0.6955,-1.582 -1.1444,-1.1843 -12.0004,-10.742 -12.5058,-11.0102 -1.741,-0.924 -3.6769,0.9823 -2.835,2.7914 0.1259,0.2704 2.575,2.5621 5.4425,5.0927 2.8676,2.5306 5.2138,4.6493 5.2138,4.7081 0,0.059 -2.3481,2.1775 -5.2179,4.7082 -2.8699,2.5306 -5.328,4.8595 -5.4626,5.1754 -0.7248,1.7011 1.2438,3.566 2.8592,2.7087 z"
     id="path2" /></svg>
