<?xml version="1.0" encoding="UTF-8" standalone="no"?>
<svg
   id="light"
   enable-background="new 0 0 24 24"
   height="64"
   viewBox="0 0 3 3"
   width="64"
   version="1.1"
   sodipodi:docname="menu.svg"
   inkscape:version="1.3.2 (091e20e, 2023-11-25, custom)"
   xmlns:inkscape="http://www.inkscape.org/namespaces/inkscape"
   xmlns:sodipodi="http://sodipodi.sourceforge.net/DTD/sodipodi-0.dtd"
   xmlns="http://www.w3.org/2000/svg"
   xmlns:svg="http://www.w3.org/2000/svg">
  <defs
     id="defs4" />
  <sodipodi:namedview
     id="namedview4"
     pagecolor="#ffffff"
     bordercolor="#000000"
     borderopacity="0.25"
     inkscape:showpageshadow="2"
     inkscape:pageopacity="0.0"
     inkscape:pagecheckerboard="0"
     inkscape:deskcolor="#d1d1d1"
     inkscape:zoom="1.1808131"
     inkscape:cx="234.16068"
     inkscape:cy="288.36062"
     inkscape:window-width="1920"
     inkscape:window-height="1111"
     inkscape:window-x="-9"
     inkscape:window-y="-9"
     inkscape:window-maximized="1"
     inkscape:current-layer="light" />
  <g
     id="g5"
     transform="scale(0.125)"
     style="fill:#ffffff">
    <g
       id="g1"
       style="fill:#ffffff;fill-opacity:1">
      <path
         d="M 21.5,24 H 2.5 C 1.121,24 0,22.878 0,21.5 V 2.5 C 0,1.122 1.121,0 2.5,0 h 19 C 22.879,0 24,1.122 24,2.5 v 19 C 24,22.878 22.879,24 21.5,24 Z M 2.5,1 C 1.673,1 1,1.673 1,2.5 v 19 C 1,22.327 1.673,23 2.5,23 h 19 C 22.327,23 23,22.327 23,21.5 V 2.5 C 23,1.673 22.327,1 21.5,1 Z"
         id="path1"
         style="fill:#ffffff;fill-opacity:1" />
    </g>
    <g
       id="g2"
       style="fill:#ffffff">
      <path
         d="m 16.5,8 h -9 C 7.224,8 7,7.776 7,7.5 7,7.224 7.224,7 7.5,7 h 9 C 16.776,7 17,7.224 17,7.5 17,7.776 16.776,8 16.5,8 Z"
         id="path2"
         style="fill:#ffffff" />
    </g>
    <g
       id="g3"
       style="fill:#ffffff">
      <path
         d="m 16.5,12.5 h -9 C 7.224,12.5 7,12.276 7,12 7,11.724 7.224,11.5 7.5,11.5 h 9 c 0.276,0 0.5,0.224 0.5,0.5 0,0.276 -0.224,0.5 -0.5,0.5 z"
         id="path3"
         style="fill:#ffffff" />
    </g>
    <g
       id="g4"
       style="fill:#ffffff">
      <path
         d="m 16.5,17 h -9 C 7.224,17 7,16.776 7,16.5 7,16.224 7.224,16 7.5,16 h 9 c 0.276,0 0.5,0.224 0.5,0.5 0,0.276 -0.224,0.5 -0.5,0.5 z"
         id="path4"
         style="fill:#ffffff" />
    </g>
  </g>
</svg>
